<?xml version="1.0" encoding="UTF-8"?>
<svg width="468px" height="273px" viewBox="0 0 468 273" version="1.1" xmlns="http://www.w3.org/2000/svg" xmlns:xlink="http://www.w3.org/1999/xlink">
    <!-- Generator: Sketch 55 (78076) - https://sketchapp.com -->
    <title>Group</title>
    <desc>Created with Sketch.</desc>
    <g id="Page-1" stroke="none" stroke-width="1" fill="none" fill-rule="evenodd">
        <g id="Group" transform="translate(0.000000, -0.000200)">
            <path d="M14.3869801,163.334539 L46.6832116,163.334539 C58.0785461,163.334539 69.3714792,171.493649 72.9512984,182.313505 L89.3566872,231.914734 L105.762076,182.314351 C109.341049,171.494495 120.633982,163.334539 132.030163,163.334539 L453.61302,163.334539 L453.61302,14.3869801 L14.3869801,14.3869801 L14.3869801,163.334539 Z" id="Fill-1" fill-opacity="0.9" fill="#FFFFFE"></path>
            <path d="M453.61302,163.334539 L132.030163,163.334539 C120.633982,163.334539 109.341049,171.494495 105.762076,182.314351 L89.3566872,231.914734 L72.9512984,182.313505 C69.3714792,171.493649 58.0785461,163.334539 46.6832116,163.334539 L14.3869801,163.334539 L14.3869801,14.3869801 L453.61302,14.3869801 L453.61302,163.334539 Z M458.403884,-2.84217094e-14 L9.59526944,-2.84217094e-14 C4.31863291,-2.84217094e-14 0,4.31863291 0,9.59526944 L0,168.12625 C0,173.402886 4.31863291,177.721519 9.59526944,177.721519 L46.6832116,177.721519 C51.9598481,177.721519 57.6342423,181.820962 59.2921302,186.831863 L86.343038,268.619306 C87.1724051,271.124333 88.264123,272.376846 89.3566872,272.376846 C90.4484051,272.376846 91.5409693,271.124333 92.3694901,268.619306 L119.421244,186.831863 C121.079132,181.820962 126.75268,177.721519 132.030163,177.721519 L458.403884,177.721519 C463.681367,177.721519 468,173.402886 468,168.12625 L468,9.59526944 C468,4.31863291 463.681367,-2.84217094e-14 458.403884,-2.84217094e-14 L458.403884,-2.84217094e-14 Z" id="Fill-3" fill="#007FB6"></path>
            <path d="M46.0919913,90.5281259 L46.0919913,90.3216304 C46.0919913,69.7761765 61.578306,52.9476412 83.7757237,52.9476412 C97.403579,52.9476412 105.56015,57.4905418 112.270407,64.0983971 L102.152975,75.7645454 C96.5775971,70.7054061 90.8989714,67.607974 83.6724759,67.607974 C71.4892427,67.607974 62.7140311,77.7262524 62.7140311,90.1151349 L62.7140311,90.3216304 C62.7140311,102.711359 71.2835935,113.035287 83.6724759,113.035287 C91.9314488,113.035287 96.9905881,109.731359 102.669214,104.569818 L112.786646,114.790498 C105.352809,122.740574 97.0938358,127.69562 83.1562373,127.69562 C61.8880492,127.69562 46.0919913,111.280075 46.0919913,90.5281259" id="Fill-6" fill="#AB2430"></path>
            <path d="M120.532681,115.926054 L129.928225,104.672051 C136.431986,110.040933 143.246337,113.448108 151.506156,113.448108 C158.009918,113.448108 161.933332,110.866915 161.933332,106.634604 L161.933332,106.427262 C161.933332,102.401447 159.455386,100.336492 147.376247,97.2390597 C132.819162,93.522141 123.423617,89.4963255 123.423617,75.1448897 L123.423617,74.9383942 C123.423617,61.8267776 133.954041,53.1548137 148.718467,53.1548137 C159.24889,53.1548137 168.230597,56.4578951 175.561187,62.3430163 L167.302214,74.3189078 C160.900854,69.8801013 154.602742,67.19566 148.511972,67.19566 C142.420355,67.19566 139.219675,69.9825027 139.219675,73.4929259 L139.219675,73.6994213 C139.219675,78.4488174 142.317107,79.9975335 154.809238,83.1982134 C169.46957,87.0183797 177.72939,92.2831682 177.72939,104.878546 L177.72939,105.085042 C177.72939,119.435631 166.785129,127.488955 151.195567,127.488955 C140.252153,127.488955 129.205491,123.668788 120.532681,115.926054" id="Fill-8" fill="#AB2430"></path>
            <path d="M188.366276,90.5281259 L188.366276,90.3216304 C188.366276,69.7761765 204.36883,52.9476412 226.255658,52.9476412 C239.264873,52.9476412 247.110855,56.4580644 254.64794,62.8594242 L244.632909,74.9385635 C239.057531,70.2924152 234.102486,67.607974 225.740265,67.607974 C214.177365,67.607974 204.988316,77.8295002 204.988316,90.1151349 L204.988316,90.3216304 C204.988316,103.536495 214.073271,113.241782 226.875144,113.241782 C232.657018,113.241782 237.820251,111.796314 241.846067,108.905377 L241.846067,98.5814495 L225.843513,98.5814495 L225.843513,84.8503465 L257.228287,84.8503465 L257.228287,116.235967 C249.795296,122.533233 239.575463,127.69562 226.359752,127.69562 C203.852591,127.69562 188.366276,111.899562 188.366276,90.5281259" id="Fill-10" fill="#AB2430"></path>
            <path d="M329.502213,90.5281259 L329.502213,90.3216304 C329.502213,77.9327479 320.418104,67.607974 307.616231,67.607974 C294.814357,67.607974 285.935052,77.7262524 285.935052,90.1151349 L285.935052,90.3216304 C285.935052,102.711359 295.01916,113.035287 307.822726,113.035287 C320.6246,113.035287 329.502213,102.917855 329.502213,90.5281259 M269.313012,90.5281259 L269.313012,90.3216304 C269.313012,69.7761765 285.521214,52.9476412 307.822726,52.9476412 C330.121699,52.9476412 346.125945,69.569681 346.125945,90.1151349 L346.125945,90.3216304 C346.125945,110.867084 329.915204,127.69562 307.616231,127.69562 C285.314719,127.69562 269.313012,111.07358 269.313012,90.5281259" id="Fill-12" fill="#AB2430"></path>
            <polygon id="Fill-14" fill="#AB2430" points="349.431396 54.1867834 366.983512 54.1867834 385.876156 105.08538 404.769646 54.1867834 421.90877 54.1867834 392.68966 126.973055 378.64966 126.973055"></polygon>
        </g>
    </g>
</svg>