<svg viewBox="0 0 314 273" xmlns="http://www.w3.org/2000/svg" xml:space="preserve" style="fill-rule:evenodd;clip-rule:evenodd;stroke-linejoin:round;stroke-miterlimit:2">
    <path d="M299.613 163.335H132.03c-11.396 0-22.689 8.159-26.268 18.979l-16.405 49.6-16.406-49.6c-3.58-10.82-14.872-18.98-26.268-18.98H14.387V14.388h285.226v148.948ZM304.404 0H9.595C4.319 0 0 4.319 0 9.595v158.53c0 5.278 4.319 9.597 9.595 9.597h37.088c5.277 0 10.951 4.099 12.609 9.11l27.051 81.787c.829 2.505 1.921 3.758 3.014 3.758 1.091 0 2.184-1.253 3.012-3.758l27.052-81.787c1.658-5.011 7.332-9.11 12.609-9.11h172.374c5.277 0 9.596-4.32 9.596-9.596V9.595C314 4.319 309.681 0 304.404 0Z"/>
</svg>
