<?xml version="1.0" encoding="UTF-8"?>
<svg width="468px" height="273px" viewBox="0 0 468 273" version="1.1" xmlns="http://www.w3.org/2000/svg" xmlns:xlink="http://www.w3.org/1999/xlink">
    <!-- Generator: Sketch 54.1 (76490) - https://sketchapp.com -->
    <title>Group 16</title>
    <desc>Created with Sketch.</desc>
    <defs>
        <polygon id="path-1" points="0 0.129315789 467.396285 0.129315789 467.396285 272.15463 0 272.15463"></polygon>
    </defs>
    <g id="Page-1" stroke="none" stroke-width="1" fill="none" fill-rule="evenodd">
        <g id="Artboard" transform="translate(-60.000000, -56.000000)">
            <g id="Group-16" transform="translate(60.000000, 56.000000)">
                <path d="M14.3684211,163.968871 L46.6229907,163.968871 C58.0036254,163.968871 69.2819907,172.117456 72.857192,182.923354 L89.241418,232.460599 L105.625644,182.924199 C109.2,172.118302 120.478365,163.968871 131.859845,163.968871 L453.027864,163.968871 L453.027864,15.2134533 L14.3684211,15.2134533 L14.3684211,163.968871 Z" id="Fill-1" fill="#FFFFFE" opacity="0.854259673"></path>
                <g id="Group-5" transform="translate(0.000000, 0.715885)">
                    <mask id="mask-2" fill="white">
                        <use xlink:href="#path-1"></use>
                    </mask>
                    <g id="Clip-4"></g>
                    <path d="M453.027864,163.252986 L131.859845,163.252986 C120.478365,163.252986 109.2,171.402416 105.625644,182.208314 L89.241418,231.744713 L72.857192,182.207469 C69.2819907,171.401571 58.0036254,163.252986 46.6229907,163.252986 L14.3684211,163.252986 L14.3684211,14.4975678 L453.027864,14.4975678 L453.027864,163.252986 Z M457.812548,0.129146749 L9.58289164,0.129146749 C4.31306192,0.129146749 0,4.44220867 0,9.71203839 L0,168.038515 C0,173.308345 4.31306192,177.621407 9.58289164,177.621407 L46.6229907,177.621407 C51.8928204,177.621407 57.5598947,181.715562 59.215644,186.719998 L86.2316563,268.401936 C87.0599536,270.903732 88.1502632,272.15463 89.241418,272.15463 C90.3317276,272.15463 91.4228824,270.903732 92.2503344,268.401936 L119.267192,186.719998 C120.922941,181.715562 126.58917,177.621407 131.859845,177.621407 L457.812548,177.621407 C463.083223,177.621407 467.396285,173.308345 467.396285,168.038515 L467.396285,9.71203839 C467.396285,4.44220867 463.083223,0.129146749 457.812548,0.129146749 L457.812548,0.129146749 Z" id="Fill-3" fill="#007FB6" mask="url(#mask-2)"></path>
                </g>
                <path d="M49.3765718,91.4268548 L49.3765718,91.2214709 C49.3765718,70.7946474 64.774448,54.0621985 86.8434975,54.0621985 C100.392073,54.0621985 108.501779,58.5797991 115.174643,65.1487031 L105.114213,76.7482449 C99.5722282,71.7184523 93.9262839,68.6393842 86.740383,68.6393842 C74.6286492,68.6393842 65.9036368,78.6981241 65.9036368,91.016087 L65.9036368,91.2214709 C65.9036368,103.538589 74.4232653,113.803558 86.740383,113.803558 C94.9523582,113.803558 99.9821508,110.519106 105.628095,105.387044 L115.686835,115.548898 C108.296395,123.452375 100.08442,128.379898 86.2273458,128.379898 C65.0821012,128.379898 49.3765718,112.059062 49.3765718,91.4268548" id="Fill-6" fill="#AB2430"></path>
                <polygon id="Fill-8" fill="#AB2430" points="126.154568 115.138299 165.672797 69.1517452 127.386026 69.1517452 127.386026 55.2946709 185.997351 55.2946709 185.997351 67.3041353 146.478277 113.290689 185.997351 113.290689 185.997351 127.147764 126.154568 127.147764"></polygon>
                <path d="M194.207298,91.4268548 L194.207298,91.2214709 C194.207298,70.7946474 210.117366,54.0621985 231.878762,54.0621985 C244.812032,54.0621985 252.614084,57.5528796 260.106793,63.9172449 L250.149477,75.9267093 C244.607493,71.3076845 239.67997,68.6393842 231.365725,68.6393842 C219.869298,68.6393842 210.734363,78.8012387 210.734363,91.016087 L210.734363,91.2214709 C210.734363,104.360124 219.766183,114.008941 232.494914,114.008941 C238.243128,114.008941 243.375189,112.572099 247.378908,109.698415 L247.378908,99.4334461 L231.467994,99.4334461 L231.467994,85.7809105 L262.672824,85.7809105 L262.672824,116.98574 C255.282385,123.246991 245.119685,128.379898 231.981032,128.379898 C209.605174,128.379898 194.207298,112.674369 194.207298,91.4268548" id="Fill-10" fill="#AB2430"></path>
                <path d="M334.523043,91.4268548 L334.523043,91.2214709 C334.523043,78.903508 325.490378,68.6393842 312.762492,68.6393842 C300.033762,68.6393842 291.20648,78.6981241 291.20648,91.016087 L291.20648,91.2214709 C291.20648,103.538589 300.239146,113.803558 312.967031,113.803558 C325.695762,113.803558 334.523043,103.743972 334.523043,91.4268548 M274.68026,91.4268548 L274.68026,91.2214709 C274.68026,70.7946474 290.795712,54.0621985 312.967031,54.0621985 C335.139195,54.0621985 351.050108,70.5892635 351.050108,91.016087 L351.050108,91.2214709 C351.050108,111.648294 334.933811,128.379898 312.762492,128.379898 C290.590328,128.379898 274.68026,111.853678 274.68026,91.4268548" id="Fill-12" fill="#AB2430"></path>
                <polygon id="Fill-14" fill="#AB2430" points="354.330841 55.2949245 371.780866 55.2949245 390.565464 105.899658 409.349216 55.2949245 426.389318 55.2949245 397.339752 127.661054 383.380408 127.661054"></polygon>
            </g>
        </g>
    </g>
</svg>