<svg xmlns="http://www.w3.org/2000/svg" width="468" height="273">
  <g fill="none" fill-rule="evenodd">
    <path class="csgov-logo-bg" fill="#fffffe" d="M14.3869801,163.334539 L46.6832116,163.334539 C58.0785461,163.334539 69.3714792,171.493649 72.9512984,182.313505 L89.3566872,231.914734 L105.762076,182.314351 C109.341049,171.494495 120.633982,163.334539 132.030163,163.334539 L453.61302,163.334539 L453.61302,14.3869801 L14.3869801,14.3869801 L14.3869801,163.334539 Z"/>
    <path class="csgov-logo-border" fill="#007fb6" d="M453.61302,163.334539 L132.030163,163.334539 C120.633982,163.334539 109.341049,171.494495 105.762076,182.314351 L89.3566872,231.914734 L72.9512984,182.313505 C69.3714792,171.493649 58.0785461,163.334539 46.6832116,163.334539 L14.3869801,163.334539 L14.3869801,14.3869801 L453.61302,14.3869801 L453.61302,163.334539 Z M458.403884,-2.84217094e-14 L9.59526944,-2.84217094e-14 C4.31863291,-2.84217094e-14 0,4.31863291 0,9.59526944 L0,168.12625 C0,173.402886 4.31863291,177.721519 9.59526944,177.721519 L46.6832116,177.721519 C51.9598481,177.721519 57.6342423,181.820962 59.2921302,186.831863 L86.343038,268.619306 C87.1724051,271.124333 88.264123,272.376846 89.3566872,272.376846 C90.4484051,272.376846 91.5409693,271.124333 92.3694901,268.619306 L119.421244,186.831863 C121.079132,181.820962 126.75268,177.721519 132.030163,177.721519 L458.403884,177.721519 C463.681367,177.721519 468,173.402886 468,168.12625 L468,9.59526944 C468,4.31863291 463.681367,-2.84217094e-14 458.403884,-2.84217094e-14 L458.403884,-2.84217094e-14 Z"/>
    <path class="csgov-logo-text" fill="#ab2430" d="M46.092 90.528 46.092 90.322C46.092 69.776 61.578 52.948 83.776 52.948 97.404 52.948 105.56 57.491 112.27 64.098L102.153 75.765C96.578 70.705 90.899 67.608 83.672 67.608 71.489 67.608 62.714 77.726 62.714 90.115L62.714 90.322C62.714 102.711 71.284 113.035 83.672 113.035 91.931 113.035 96.991 109.731 102.669 104.57L112.787 114.79C105.353 122.741 97.094 127.696 83.156 127.696 61.888 127.696 46.092 111.28 46.092 90.528M120.533 115.926 129.928 104.672C136.432 110.041 143.246 113.448 151.506 113.448 158.01 113.448 161.933 110.867 161.933 106.635L161.933 106.427C161.933 102.401 159.455 100.336 147.376 97.239 132.819 93.522 123.424 89.496 123.424 75.145L123.424 74.938C123.424 61.827 133.954 53.155 148.718 53.155 159.249 53.155 168.231 56.458 175.561 62.343L167.302 74.319C160.901 69.88 154.603 67.196 148.512 67.196 142.42 67.196 139.22 69.983 139.22 73.493L139.22 73.699C139.22 78.449 142.317 79.998 154.809 83.198 169.47 87.018 177.729 92.283 177.729 104.879L177.729 105.085C177.729 119.436 166.785 127.489 151.196 127.489 140.252 127.489 129.205 123.669 120.533 115.926M188.366 90.528 188.366 90.322C188.366 69.776 204.369 52.948 226.256 52.948 239.265 52.948 247.111 56.458 254.648 62.859L244.633 74.939C239.058 70.292 234.102 67.608 225.74 67.608 214.177 67.608 204.988 77.83 204.988 90.115L204.988 90.322C204.988 103.536 214.073 113.242 226.875 113.242 232.657 113.242 237.82 111.796 241.846 108.905L241.846 98.581 225.844 98.581 225.844 84.85 257.228 84.85 257.228 116.236C249.795 122.533 239.575 127.696 226.36 127.696 203.853 127.696 188.366 111.9 188.366 90.528M329.502 90.528 329.502 90.322C329.502 77.933 320.418 67.608 307.616 67.608 294.814 67.608 285.935 77.726 285.935 90.115L285.935 90.322C285.935 102.711 295.019 113.035 307.823 113.035 320.625 113.035 329.502 102.918 329.502 90.528M269.313 90.528 269.313 90.322C269.313 69.776 285.521 52.948 307.823 52.948 330.122 52.948 346.126 69.57 346.126 90.115L346.126 90.322C346.126 110.867 329.915 127.696 307.616 127.696 285.315 127.696 269.313 111.074 269.313 90.528M349.431 54.187 366.984 54.187 385.876 105.085 404.77 54.187 421.909 54.187 392.69 126.973 378.65 126.973z"/>
  </g>
</svg>
